<svg width="67" height="50" viewBox="0 0 67 50" fill="none" xmlns="http://www.w3.org/2000/svg">
<path d="M44.0555 28.8309C48.4148 28.8309 54.6896 27.9392 54.6896 22.7543C54.7226 22.358 54.6896 21.9617 54.5905 21.5654L52.0145 10.3369C51.4201 7.85997 50.8917 6.73712 46.5324 4.55746C43.1638 2.84016 35.8322 0 33.6526 0C31.638 0 31.0436 2.60898 28.6328 2.60898C26.321 2.60898 24.6037 0.660503 22.424 0.660503C20.3435 0.660503 18.9894 2.08058 17.9326 4.98679C17.9326 4.98679 15.0264 13.2431 14.6301 14.432C14.5971 14.6631 14.5641 14.8613 14.5641 15.0925C14.5641 18.2959 27.1797 28.7979 44.0555 28.7979M55.3831 24.8679C55.9775 27.7081 55.9775 28.0053 55.9775 28.3025C55.9775 33.2563 50.4954 35.9313 43.3289 35.9313C27.0806 35.9313 12.8468 26.4201 12.8468 20.1453C12.8468 19.2536 13.0449 18.395 13.3752 17.6024C7.52972 17.8666 0 18.9234 0 25.5945C0 36.5588 25.8917 50 46.4003 50C62.1202 50 66.0502 42.8996 66.0502 37.2853C66.0502 32.86 62.2523 27.8402 55.3831 24.8679Z" fill="#1E1E1E"/>
</svg>
